<svg xmlns="http://www.w3.org/2000/svg" version="1.1" xmlns:xlink="http://www.w3.org/1999/xlink" width="512" height="512" x="0" y="0" viewBox="0 0 512 512" style="enable-background:new 0 0 512 512" xml:space="preserve" class=""><g><path fill="#6823ff" fill-rule="evenodd" d="M256 512c140.997 0 256-115.003 256-256S396.997 0 256 0 0 115.003 0 256s115.003 256 256 256z" clip-rule="evenodd" opacity="1" data-original="#f34235" class=""></path><path fill="#ffffff" d="M188.231 254.918V153.756c0-37.36 30.409-67.756 67.776-67.756s67.762 30.396 67.762 67.756v101.162c0 37.373-30.395 67.776-67.762 67.776s-67.776-30.403-67.776-67.776zm169.286-69.21c-5.899 0-10.699 4.807-10.699 10.705v58.504c0 24.149-9.476 46.925-26.688 64.13-17.205 17.205-39.975 26.675-64.124 26.675-24.148 0-46.925-9.47-64.13-26.675-17.198-17.198-26.675-39.975-26.675-64.13v-58.504c0-5.899-4.8-10.705-10.699-10.705-5.912 0-10.726 4.807-10.726 10.705v58.504c0 58.268 44.637 106.3 101.511 111.715v31.928h-40.931c-7.565 0-13.723 6.152-13.723 13.723V426h130.753v-13.716c0-7.572-6.158-13.723-13.723-13.723h-40.951v-31.927c56.874-5.409 101.511-53.443 101.511-111.716v-58.504c0-5.899-4.8-10.706-10.706-10.706z" opacity="1" data-original="#ffffff" class=""></path></g></svg>